<svg xmlns="http://www.w3.org/2000/svg" viewBox="0 0 64 64" role="img" aria-label="数构寻迹">
  <defs>
    <linearGradient id="bg" x1="10" y1="6" x2="54" y2="58" gradientUnits="userSpaceOnUse">
      <stop offset="0" stop-color="#2563eb"/>
      <stop offset="1" stop-color="#7c3aed"/>
    </linearGradient>
    <linearGradient id="node" x1="16" y1="18" x2="48" y2="48" gradientUnits="userSpaceOnUse">
      <stop offset="0" stop-color="#ffffff"/>
      <stop offset="1" stop-color="#dbeafe"/>
    </linearGradient>
  </defs>
  <rect x="4" y="4" width="56" height="56" rx="14" fill="url(#bg)"/>
  <path d="M18 20h12M34 20h12M24 20v12M40 20v12M20 40h24M32 32v8" fill="none" stroke="rgba(255,255,255,0.55)" stroke-width="2.6" stroke-linecap="round"/>
  <circle cx="20" cy="20" r="4.2" fill="url(#node)"/>
  <circle cx="32" cy="20" r="4.2" fill="url(#node)"/>
  <circle cx="44" cy="20" r="4.2" fill="url(#node)"/>
  <circle cx="32" cy="32" r="4.6" fill="#f8fafc"/>
  <circle cx="20" cy="44" r="4.2" fill="url(#node)"/>
  <circle cx="44" cy="44" r="4.2" fill="url(#node)"/>
  <path d="M24 20h4M36 20h4M32 24v4M24 44h16M32 36v4" fill="none" stroke="#0f172a" stroke-opacity=".18" stroke-width="1.5" stroke-linecap="round"/>
</svg>
